<?xml version="1.0" encoding="utf-8" standalone="no"?>
<!DOCTYPE svg PUBLIC "-//W3C//DTD SVG 1.1//EN"
  "http://www.w3.org/Graphics/SVG/1.1/DTD/svg11.dtd">
<svg xmlns:xlink="http://www.w3.org/1999/xlink" width="491.906135pt" height="347.336719pt" viewBox="0 0 491.906135 347.336719" xmlns="http://www.w3.org/2000/svg" version="1.1">
 <metadata>
  <rdf:RDF xmlns:dc="http://purl.org/dc/elements/1.1/" xmlns:cc="http://creativecommons.org/ns#" xmlns:rdf="http://www.w3.org/1999/02/22-rdf-syntax-ns#">
   <cc:Work>
    <dc:type rdf:resource="http://purl.org/dc/dcmitype/StillImage"/>
    <dc:date>2026-05-08T15:19:54.859307</dc:date>
    <dc:format>image/svg+xml</dc:format>
    <dc:creator>
     <cc:Agent>
      <dc:title>Matplotlib v3.10.9, https://matplotlib.org/</dc:title>
     </cc:Agent>
    </dc:creator>
   </cc:Work>
  </rdf:RDF>
 </metadata>
 <defs>
  <style type="text/css">*{stroke-linejoin: round; stroke-linecap: butt}</style>
 </defs>
 <g id="figure_1">
  <g id="patch_1">
   <path d="M 0 347.336719 
L 491.906135 347.336719 
L 491.906135 0 
L 0 0 
z
" style="fill: #ffffff"/>
  </g>
  <g id="axes_1">
   <g id="patch_2">
    <path d="M 44.502969 305.315625 
L 480.285744 305.315625 
L 480.285744 21.935625 
L 44.502969 21.935625 
z
" style="fill: #ffffff"/>
   </g>
   <g id="matplotlib.axis_1">
    <g id="xtick_1">
     <g id="line2d_1">
      <path d="M 70.760493 305.315625 
L 70.760493 21.935625 
" clip-path="url(#pd6b04c49ca)" style="fill: none; stroke: #cccccc; stroke-linecap: round"/>
     </g>
     <g id="text_1">
      <!-- 7.7 -->
      <g style="fill: #262626" transform="translate(63.115493 322.689219) scale(0.11 -0.11)">
       <defs>
        <path id="ArialMT-37" d="M 303 3981 
L 303 4522 
L 3269 4522 
L 3269 4084 
Q 2831 3619 2401 2847 
Q 1972 2075 1738 1259 
Q 1569 684 1522 0 
L 944 0 
Q 953 541 1156 1306 
Q 1359 2072 1739 2783 
Q 2119 3494 2547 3981 
L 303 3981 
z
" transform="scale(0.015625)"/>
        <path id="ArialMT-2e" d="M 581 0 
L 581 641 
L 1222 641 
L 1222 0 
L 581 0 
z
" transform="scale(0.015625)"/>
       </defs>
       <use xlink:href="#ArialMT-37"/>
       <use xlink:href="#ArialMT-2e" transform="translate(55.615234 0)"/>
       <use xlink:href="#ArialMT-37" transform="translate(83.398438 0)"/>
      </g>
     </g>
    </g>
    <g id="xtick_2">
     <g id="line2d_2">
      <path d="M 128.803442 305.315625 
L 128.803442 21.935625 
" clip-path="url(#pd6b04c49ca)" style="fill: none; stroke: #cccccc; stroke-linecap: round"/>
     </g>
     <g id="text_2">
      <!-- 7.8 -->
      <g style="fill: #262626" transform="translate(121.158442 322.689219) scale(0.11 -0.11)">
       <defs>
        <path id="ArialMT-38" d="M 1131 2484 
Q 781 2613 612 2850 
Q 444 3088 444 3419 
Q 444 3919 803 4259 
Q 1163 4600 1759 4600 
Q 2359 4600 2725 4251 
Q 3091 3903 3091 3403 
Q 3091 3084 2923 2848 
Q 2756 2613 2416 2484 
Q 2838 2347 3058 2040 
Q 3278 1734 3278 1309 
Q 3278 722 2862 322 
Q 2447 -78 1769 -78 
Q 1091 -78 675 323 
Q 259 725 259 1325 
Q 259 1772 486 2073 
Q 713 2375 1131 2484 
z
M 1019 3438 
Q 1019 3113 1228 2906 
Q 1438 2700 1772 2700 
Q 2097 2700 2305 2904 
Q 2513 3109 2513 3406 
Q 2513 3716 2298 3927 
Q 2084 4138 1766 4138 
Q 1444 4138 1231 3931 
Q 1019 3725 1019 3438 
z
M 838 1322 
Q 838 1081 952 856 
Q 1066 631 1291 507 
Q 1516 384 1775 384 
Q 2178 384 2440 643 
Q 2703 903 2703 1303 
Q 2703 1709 2433 1975 
Q 2163 2241 1756 2241 
Q 1359 2241 1098 1978 
Q 838 1716 838 1322 
z
" transform="scale(0.015625)"/>
       </defs>
       <use xlink:href="#ArialMT-37"/>
       <use xlink:href="#ArialMT-2e" transform="translate(55.615234 0)"/>
       <use xlink:href="#ArialMT-38" transform="translate(83.398438 0)"/>
      </g>
     </g>
    </g>
    <g id="xtick_3">
     <g id="line2d_3">
      <path d="M 186.846391 305.315625 
L 186.846391 21.935625 
" clip-path="url(#pd6b04c49ca)" style="fill: none; stroke: #cccccc; stroke-linecap: round"/>
     </g>
     <g id="text_3">
      <!-- 7.9 -->
      <g style="fill: #262626" transform="translate(179.201391 322.689219) scale(0.11 -0.11)">
       <defs>
        <path id="ArialMT-39" d="M 350 1059 
L 891 1109 
Q 959 728 1153 556 
Q 1347 384 1650 384 
Q 1909 384 2104 503 
Q 2300 622 2425 820 
Q 2550 1019 2634 1356 
Q 2719 1694 2719 2044 
Q 2719 2081 2716 2156 
Q 2547 1888 2255 1720 
Q 1963 1553 1622 1553 
Q 1053 1553 659 1965 
Q 266 2378 266 3053 
Q 266 3750 677 4175 
Q 1088 4600 1706 4600 
Q 2153 4600 2523 4359 
Q 2894 4119 3086 3673 
Q 3278 3228 3278 2384 
Q 3278 1506 3087 986 
Q 2897 466 2520 194 
Q 2144 -78 1638 -78 
Q 1100 -78 759 220 
Q 419 519 350 1059 
z
M 2653 3081 
Q 2653 3566 2395 3850 
Q 2138 4134 1775 4134 
Q 1400 4134 1122 3828 
Q 844 3522 844 3034 
Q 844 2597 1108 2323 
Q 1372 2050 1759 2050 
Q 2150 2050 2401 2323 
Q 2653 2597 2653 3081 
z
" transform="scale(0.015625)"/>
       </defs>
       <use xlink:href="#ArialMT-37"/>
       <use xlink:href="#ArialMT-2e" transform="translate(55.615234 0)"/>
       <use xlink:href="#ArialMT-39" transform="translate(83.398438 0)"/>
      </g>
     </g>
    </g>
    <g id="xtick_4">
     <g id="line2d_4">
      <path d="M 244.88934 305.315625 
L 244.88934 21.935625 
" clip-path="url(#pd6b04c49ca)" style="fill: none; stroke: #cccccc; stroke-linecap: round"/>
     </g>
     <g id="text_4">
      <!-- 8.0 -->
      <g style="fill: #262626" transform="translate(237.24434 322.689219) scale(0.11 -0.11)">
       <defs>
        <path id="ArialMT-30" d="M 266 2259 
Q 266 3072 433 3567 
Q 600 4063 929 4331 
Q 1259 4600 1759 4600 
Q 2128 4600 2406 4451 
Q 2684 4303 2865 4023 
Q 3047 3744 3150 3342 
Q 3253 2941 3253 2259 
Q 3253 1453 3087 958 
Q 2922 463 2592 192 
Q 2263 -78 1759 -78 
Q 1097 -78 719 397 
Q 266 969 266 2259 
z
M 844 2259 
Q 844 1131 1108 757 
Q 1372 384 1759 384 
Q 2147 384 2411 759 
Q 2675 1134 2675 2259 
Q 2675 3391 2411 3762 
Q 2147 4134 1753 4134 
Q 1366 4134 1134 3806 
Q 844 3388 844 2259 
z
" transform="scale(0.015625)"/>
       </defs>
       <use xlink:href="#ArialMT-38"/>
       <use xlink:href="#ArialMT-2e" transform="translate(55.615234 0)"/>
       <use xlink:href="#ArialMT-30" transform="translate(83.398438 0)"/>
      </g>
     </g>
    </g>
    <g id="xtick_5">
     <g id="line2d_5">
      <path d="M 302.932289 305.315625 
L 302.932289 21.935625 
" clip-path="url(#pd6b04c49ca)" style="fill: none; stroke: #cccccc; stroke-linecap: round"/>
     </g>
     <g id="text_5">
      <!-- 8.1 -->
      <g style="fill: #262626" transform="translate(295.287289 322.689219) scale(0.11 -0.11)">
       <defs>
        <path id="ArialMT-31" d="M 2384 0 
L 1822 0 
L 1822 3584 
Q 1619 3391 1289 3197 
Q 959 3003 697 2906 
L 697 3450 
Q 1169 3672 1522 3987 
Q 1875 4303 2022 4600 
L 2384 4600 
L 2384 0 
z
" transform="scale(0.015625)"/>
       </defs>
       <use xlink:href="#ArialMT-38"/>
       <use xlink:href="#ArialMT-2e" transform="translate(55.615234 0)"/>
       <use xlink:href="#ArialMT-31" transform="translate(83.398438 0)"/>
      </g>
     </g>
    </g>
    <g id="xtick_6">
     <g id="line2d_6">
      <path d="M 360.975238 305.315625 
L 360.975238 21.935625 
" clip-path="url(#pd6b04c49ca)" style="fill: none; stroke: #cccccc; stroke-linecap: round"/>
     </g>
     <g id="text_6">
      <!-- 8.2 -->
      <g style="fill: #262626" transform="translate(353.330238 322.689219) scale(0.11 -0.11)">
       <defs>
        <path id="ArialMT-32" d="M 3222 541 
L 3222 0 
L 194 0 
Q 188 203 259 391 
Q 375 700 629 1000 
Q 884 1300 1366 1694 
Q 2113 2306 2375 2664 
Q 2638 3022 2638 3341 
Q 2638 3675 2398 3904 
Q 2159 4134 1775 4134 
Q 1369 4134 1125 3890 
Q 881 3647 878 3216 
L 300 3275 
Q 359 3922 746 4261 
Q 1134 4600 1788 4600 
Q 2447 4600 2831 4234 
Q 3216 3869 3216 3328 
Q 3216 3053 3103 2787 
Q 2991 2522 2730 2228 
Q 2469 1934 1863 1422 
Q 1356 997 1212 845 
Q 1069 694 975 541 
L 3222 541 
z
" transform="scale(0.015625)"/>
       </defs>
       <use xlink:href="#ArialMT-38"/>
       <use xlink:href="#ArialMT-2e" transform="translate(55.615234 0)"/>
       <use xlink:href="#ArialMT-32" transform="translate(83.398438 0)"/>
      </g>
     </g>
    </g>
    <g id="xtick_7">
     <g id="line2d_7">
      <path d="M 419.018186 305.315625 
L 419.018186 21.935625 
" clip-path="url(#pd6b04c49ca)" style="fill: none; stroke: #cccccc; stroke-linecap: round"/>
     </g>
     <g id="text_7">
      <!-- 8.3 -->
      <g style="fill: #262626" transform="translate(411.373186 322.689219) scale(0.11 -0.11)">
       <defs>
        <path id="ArialMT-33" d="M 269 1209 
L 831 1284 
Q 928 806 1161 595 
Q 1394 384 1728 384 
Q 2125 384 2398 659 
Q 2672 934 2672 1341 
Q 2672 1728 2419 1979 
Q 2166 2231 1775 2231 
Q 1616 2231 1378 2169 
L 1441 2663 
Q 1497 2656 1531 2656 
Q 1891 2656 2178 2843 
Q 2466 3031 2466 3422 
Q 2466 3731 2256 3934 
Q 2047 4138 1716 4138 
Q 1388 4138 1169 3931 
Q 950 3725 888 3313 
L 325 3413 
Q 428 3978 793 4289 
Q 1159 4600 1703 4600 
Q 2078 4600 2393 4439 
Q 2709 4278 2876 4000 
Q 3044 3722 3044 3409 
Q 3044 3113 2884 2869 
Q 2725 2625 2413 2481 
Q 2819 2388 3044 2092 
Q 3269 1797 3269 1353 
Q 3269 753 2831 336 
Q 2394 -81 1725 -81 
Q 1122 -81 723 278 
Q 325 638 269 1209 
z
" transform="scale(0.015625)"/>
       </defs>
       <use xlink:href="#ArialMT-38"/>
       <use xlink:href="#ArialMT-2e" transform="translate(55.615234 0)"/>
       <use xlink:href="#ArialMT-33" transform="translate(83.398438 0)"/>
      </g>
     </g>
    </g>
    <g id="xtick_8">
     <g id="line2d_8">
      <path d="M 477.061135 305.315625 
L 477.061135 21.935625 
" clip-path="url(#pd6b04c49ca)" style="fill: none; stroke: #cccccc; stroke-linecap: round"/>
     </g>
     <g id="text_8">
      <!-- 8.4 -->
      <g style="fill: #262626" transform="translate(469.416135 322.689219) scale(0.11 -0.11)">
       <defs>
        <path id="ArialMT-34" d="M 2069 0 
L 2069 1097 
L 81 1097 
L 81 1613 
L 2172 4581 
L 2631 4581 
L 2631 1613 
L 3250 1613 
L 3250 1097 
L 2631 1097 
L 2631 0 
L 2069 0 
z
M 2069 1613 
L 2069 3678 
L 634 1613 
L 2069 1613 
z
" transform="scale(0.015625)"/>
       </defs>
       <use xlink:href="#ArialMT-38"/>
       <use xlink:href="#ArialMT-2e" transform="translate(55.615234 0)"/>
       <use xlink:href="#ArialMT-34" transform="translate(83.398438 0)"/>
      </g>
     </g>
    </g>
    <g id="text_9">
     <!-- Voto medio de la clase (0–10) -->
     <g style="fill: #262626" transform="translate(183.016231 337.611094) scale(0.12 -0.12)">
      <defs>
       <path id="ArialMT-56" d="M 1803 0 
L 28 4581 
L 684 4581 
L 1875 1253 
Q 2019 853 2116 503 
Q 2222 878 2363 1253 
L 3600 4581 
L 4219 4581 
L 2425 0 
L 1803 0 
z
" transform="scale(0.015625)"/>
       <path id="ArialMT-6f" d="M 213 1659 
Q 213 2581 725 3025 
Q 1153 3394 1769 3394 
Q 2453 3394 2887 2945 
Q 3322 2497 3322 1706 
Q 3322 1066 3130 698 
Q 2938 331 2570 128 
Q 2203 -75 1769 -75 
Q 1072 -75 642 372 
Q 213 819 213 1659 
z
M 791 1659 
Q 791 1022 1069 705 
Q 1347 388 1769 388 
Q 2188 388 2466 706 
Q 2744 1025 2744 1678 
Q 2744 2294 2464 2611 
Q 2184 2928 1769 2928 
Q 1347 2928 1069 2612 
Q 791 2297 791 1659 
z
" transform="scale(0.015625)"/>
       <path id="ArialMT-74" d="M 1650 503 
L 1731 6 
Q 1494 -44 1306 -44 
Q 1000 -44 831 53 
Q 663 150 594 308 
Q 525 466 525 972 
L 525 2881 
L 113 2881 
L 113 3319 
L 525 3319 
L 525 4141 
L 1084 4478 
L 1084 3319 
L 1650 3319 
L 1650 2881 
L 1084 2881 
L 1084 941 
Q 1084 700 1114 631 
Q 1144 563 1211 522 
Q 1278 481 1403 481 
Q 1497 481 1650 503 
z
" transform="scale(0.015625)"/>
       <path id="ArialMT-20" transform="scale(0.015625)"/>
       <path id="ArialMT-6d" d="M 422 0 
L 422 3319 
L 925 3319 
L 925 2853 
Q 1081 3097 1340 3245 
Q 1600 3394 1931 3394 
Q 2300 3394 2536 3241 
Q 2772 3088 2869 2813 
Q 3263 3394 3894 3394 
Q 4388 3394 4653 3120 
Q 4919 2847 4919 2278 
L 4919 0 
L 4359 0 
L 4359 2091 
Q 4359 2428 4304 2576 
Q 4250 2725 4106 2815 
Q 3963 2906 3769 2906 
Q 3419 2906 3187 2673 
Q 2956 2441 2956 1928 
L 2956 0 
L 2394 0 
L 2394 2156 
Q 2394 2531 2256 2718 
Q 2119 2906 1806 2906 
Q 1569 2906 1367 2781 
Q 1166 2656 1075 2415 
Q 984 2175 984 1722 
L 984 0 
L 422 0 
z
" transform="scale(0.015625)"/>
       <path id="ArialMT-65" d="M 2694 1069 
L 3275 997 
Q 3138 488 2766 206 
Q 2394 -75 1816 -75 
Q 1088 -75 661 373 
Q 234 822 234 1631 
Q 234 2469 665 2931 
Q 1097 3394 1784 3394 
Q 2450 3394 2872 2941 
Q 3294 2488 3294 1666 
Q 3294 1616 3291 1516 
L 816 1516 
Q 847 969 1125 678 
Q 1403 388 1819 388 
Q 2128 388 2347 550 
Q 2566 713 2694 1069 
z
M 847 1978 
L 2700 1978 
Q 2663 2397 2488 2606 
Q 2219 2931 1791 2931 
Q 1403 2931 1139 2672 
Q 875 2413 847 1978 
z
" transform="scale(0.015625)"/>
       <path id="ArialMT-64" d="M 2575 0 
L 2575 419 
Q 2259 -75 1647 -75 
Q 1250 -75 917 144 
Q 584 363 401 755 
Q 219 1147 219 1656 
Q 219 2153 384 2558 
Q 550 2963 881 3178 
Q 1213 3394 1622 3394 
Q 1922 3394 2156 3267 
Q 2391 3141 2538 2938 
L 2538 4581 
L 3097 4581 
L 3097 0 
L 2575 0 
z
M 797 1656 
Q 797 1019 1065 703 
Q 1334 388 1700 388 
Q 2069 388 2326 689 
Q 2584 991 2584 1609 
Q 2584 2291 2321 2609 
Q 2059 2928 1675 2928 
Q 1300 2928 1048 2622 
Q 797 2316 797 1656 
z
" transform="scale(0.015625)"/>
       <path id="ArialMT-69" d="M 425 3934 
L 425 4581 
L 988 4581 
L 988 3934 
L 425 3934 
z
M 425 0 
L 425 3319 
L 988 3319 
L 988 0 
L 425 0 
z
" transform="scale(0.015625)"/>
       <path id="ArialMT-6c" d="M 409 0 
L 409 4581 
L 972 4581 
L 972 0 
L 409 0 
z
" transform="scale(0.015625)"/>
       <path id="ArialMT-61" d="M 2588 409 
Q 2275 144 1986 34 
Q 1697 -75 1366 -75 
Q 819 -75 525 192 
Q 231 459 231 875 
Q 231 1119 342 1320 
Q 453 1522 633 1644 
Q 813 1766 1038 1828 
Q 1203 1872 1538 1913 
Q 2219 1994 2541 2106 
Q 2544 2222 2544 2253 
Q 2544 2597 2384 2738 
Q 2169 2928 1744 2928 
Q 1347 2928 1158 2789 
Q 969 2650 878 2297 
L 328 2372 
Q 403 2725 575 2942 
Q 747 3159 1072 3276 
Q 1397 3394 1825 3394 
Q 2250 3394 2515 3294 
Q 2781 3194 2906 3042 
Q 3031 2891 3081 2659 
Q 3109 2516 3109 2141 
L 3109 1391 
Q 3109 606 3145 398 
Q 3181 191 3288 0 
L 2700 0 
Q 2613 175 2588 409 
z
M 2541 1666 
Q 2234 1541 1622 1453 
Q 1275 1403 1131 1340 
Q 988 1278 909 1158 
Q 831 1038 831 891 
Q 831 666 1001 516 
Q 1172 366 1500 366 
Q 1825 366 2078 508 
Q 2331 650 2450 897 
Q 2541 1088 2541 1459 
L 2541 1666 
z
" transform="scale(0.015625)"/>
       <path id="ArialMT-63" d="M 2588 1216 
L 3141 1144 
Q 3050 572 2676 248 
Q 2303 -75 1759 -75 
Q 1078 -75 664 370 
Q 250 816 250 1647 
Q 250 2184 428 2587 
Q 606 2991 970 3192 
Q 1334 3394 1763 3394 
Q 2303 3394 2647 3120 
Q 2991 2847 3088 2344 
L 2541 2259 
Q 2463 2594 2264 2762 
Q 2066 2931 1784 2931 
Q 1359 2931 1093 2626 
Q 828 2322 828 1663 
Q 828 994 1084 691 
Q 1341 388 1753 388 
Q 2084 388 2306 591 
Q 2528 794 2588 1216 
z
" transform="scale(0.015625)"/>
       <path id="ArialMT-73" d="M 197 991 
L 753 1078 
Q 800 744 1014 566 
Q 1228 388 1613 388 
Q 2000 388 2187 545 
Q 2375 703 2375 916 
Q 2375 1106 2209 1216 
Q 2094 1291 1634 1406 
Q 1016 1563 777 1677 
Q 538 1791 414 1992 
Q 291 2194 291 2438 
Q 291 2659 392 2848 
Q 494 3038 669 3163 
Q 800 3259 1026 3326 
Q 1253 3394 1513 3394 
Q 1903 3394 2198 3281 
Q 2494 3169 2634 2976 
Q 2775 2784 2828 2463 
L 2278 2388 
Q 2241 2644 2061 2787 
Q 1881 2931 1553 2931 
Q 1166 2931 1000 2803 
Q 834 2675 834 2503 
Q 834 2394 903 2306 
Q 972 2216 1119 2156 
Q 1203 2125 1616 2013 
Q 2213 1853 2448 1751 
Q 2684 1650 2818 1456 
Q 2953 1263 2953 975 
Q 2953 694 2789 445 
Q 2625 197 2315 61 
Q 2006 -75 1616 -75 
Q 969 -75 630 194 
Q 291 463 197 991 
z
" transform="scale(0.015625)"/>
       <path id="ArialMT-28" d="M 1497 -1347 
Q 1031 -759 709 28 
Q 388 816 388 1659 
Q 388 2403 628 3084 
Q 909 3875 1497 4659 
L 1900 4659 
Q 1522 4009 1400 3731 
Q 1209 3300 1100 2831 
Q 966 2247 966 1656 
Q 966 153 1900 -1347 
L 1497 -1347 
z
" transform="scale(0.015625)"/>
       <path id="ArialMT-2013" d="M -13 1431 
L -13 1884 
L 3547 1884 
L 3547 1431 
L -13 1431 
z
" transform="scale(0.015625)"/>
       <path id="ArialMT-29" d="M 791 -1347 
L 388 -1347 
Q 1322 153 1322 1656 
Q 1322 2244 1188 2822 
Q 1081 3291 891 3722 
Q 769 4003 388 4659 
L 791 4659 
Q 1378 3875 1659 3084 
Q 1900 2403 1900 1659 
Q 1900 816 1576 28 
Q 1253 -759 791 -1347 
z
" transform="scale(0.015625)"/>
      </defs>
      <use xlink:href="#ArialMT-56"/>
      <use xlink:href="#ArialMT-6f" transform="translate(61.199219 0)"/>
      <use xlink:href="#ArialMT-74" transform="translate(116.814453 0)"/>
      <use xlink:href="#ArialMT-6f" transform="translate(144.597656 0)"/>
      <use xlink:href="#ArialMT-20" transform="translate(200.212891 0)"/>
      <use xlink:href="#ArialMT-6d" transform="translate(227.996094 0)"/>
      <use xlink:href="#ArialMT-65" transform="translate(311.296875 0)"/>
      <use xlink:href="#ArialMT-64" transform="translate(366.912109 0)"/>
      <use xlink:href="#ArialMT-69" transform="translate(422.527344 0)"/>
      <use xlink:href="#ArialMT-6f" transform="translate(444.744141 0)"/>
      <use xlink:href="#ArialMT-20" transform="translate(500.359375 0)"/>
      <use xlink:href="#ArialMT-64" transform="translate(528.142578 0)"/>
      <use xlink:href="#ArialMT-65" transform="translate(583.757812 0)"/>
      <use xlink:href="#ArialMT-20" transform="translate(639.373047 0)"/>
      <use xlink:href="#ArialMT-6c" transform="translate(667.15625 0)"/>
      <use xlink:href="#ArialMT-61" transform="translate(689.373047 0)"/>
      <use xlink:href="#ArialMT-20" transform="translate(744.988281 0)"/>
      <use xlink:href="#ArialMT-63" transform="translate(772.771484 0)"/>
      <use xlink:href="#ArialMT-6c" transform="translate(822.771484 0)"/>
      <use xlink:href="#ArialMT-61" transform="translate(844.988281 0)"/>
      <use xlink:href="#ArialMT-73" transform="translate(900.603516 0)"/>
      <use xlink:href="#ArialMT-65" transform="translate(950.603516 0)"/>
      <use xlink:href="#ArialMT-20" transform="translate(1006.21875 0)"/>
      <use xlink:href="#ArialMT-28" transform="translate(1034.001953 0)"/>
      <use xlink:href="#ArialMT-30" transform="translate(1067.302734 0)"/>
      <use xlink:href="#ArialMT-2013" transform="translate(1122.917969 0)"/>
      <use xlink:href="#ArialMT-31" transform="translate(1178.533203 0)"/>
      <use xlink:href="#ArialMT-30" transform="translate(1234.148438 0)"/>
      <use xlink:href="#ArialMT-29" transform="translate(1289.763672 0)"/>
     </g>
    </g>
   </g>
   <g id="matplotlib.axis_2">
    <g id="ytick_1">
     <g id="line2d_9">
      <path d="M 44.502969 272.158671 
L 480.285744 272.158671 
" clip-path="url(#pd6b04c49ca)" style="fill: none; stroke: #cccccc; stroke-linecap: round"/>
     </g>
     <g id="text_10">
      <!-- −2 -->
      <g style="fill: #262626" transform="translate(22.46125 276.095468) scale(0.11 -0.11)">
       <defs>
        <path id="ArialMT-2212" d="M 3381 1997 
L 356 1997 
L 356 2522 
L 3381 2522 
L 3381 1997 
z
" transform="scale(0.015625)"/>
       </defs>
       <use xlink:href="#ArialMT-2212"/>
       <use xlink:href="#ArialMT-32" transform="translate(58.398438 0)"/>
      </g>
     </g>
    </g>
    <g id="ytick_2">
     <g id="line2d_10">
      <path d="M 44.502969 236.810809 
L 480.285744 236.810809 
" clip-path="url(#pd6b04c49ca)" style="fill: none; stroke: #cccccc; stroke-linecap: round"/>
     </g>
     <g id="text_11">
      <!-- −1 -->
      <g style="fill: #262626" transform="translate(22.46125 240.747606) scale(0.11 -0.11)">
       <use xlink:href="#ArialMT-2212"/>
       <use xlink:href="#ArialMT-31" transform="translate(58.398438 0)"/>
      </g>
     </g>
    </g>
    <g id="ytick_3">
     <g id="line2d_11">
      <path d="M 44.502969 201.462947 
L 480.285744 201.462947 
" clip-path="url(#pd6b04c49ca)" style="fill: none; stroke: #cccccc; stroke-linecap: round"/>
     </g>
     <g id="text_12">
      <!-- 0 -->
      <g style="fill: #262626" transform="translate(28.885938 205.399744) scale(0.11 -0.11)">
       <use xlink:href="#ArialMT-30"/>
      </g>
     </g>
    </g>
    <g id="ytick_4">
     <g id="line2d_12">
      <path d="M 44.502969 166.115085 
L 480.285744 166.115085 
" clip-path="url(#pd6b04c49ca)" style="fill: none; stroke: #cccccc; stroke-linecap: round"/>
     </g>
     <g id="text_13">
      <!-- 1 -->
      <g style="fill: #262626" transform="translate(28.885938 170.051882) scale(0.11 -0.11)">
       <use xlink:href="#ArialMT-31"/>
      </g>
     </g>
    </g>
    <g id="ytick_5">
     <g id="line2d_13">
      <path d="M 44.502969 130.767223 
L 480.285744 130.767223 
" clip-path="url(#pd6b04c49ca)" style="fill: none; stroke: #cccccc; stroke-linecap: round"/>
     </g>
     <g id="text_14">
      <!-- 2 -->
      <g style="fill: #262626" transform="translate(28.885938 134.70402) scale(0.11 -0.11)">
       <use xlink:href="#ArialMT-32"/>
      </g>
     </g>
    </g>
    <g id="ytick_6">
     <g id="line2d_14">
      <path d="M 44.502969 95.419361 
L 480.285744 95.419361 
" clip-path="url(#pd6b04c49ca)" style="fill: none; stroke: #cccccc; stroke-linecap: round"/>
     </g>
     <g id="text_15">
      <!-- 3 -->
      <g style="fill: #262626" transform="translate(28.885938 99.356158) scale(0.11 -0.11)">
       <use xlink:href="#ArialMT-33"/>
      </g>
     </g>
    </g>
    <g id="ytick_7">
     <g id="line2d_15">
      <path d="M 44.502969 60.071499 
L 480.285744 60.071499 
" clip-path="url(#pd6b04c49ca)" style="fill: none; stroke: #cccccc; stroke-linecap: round"/>
     </g>
     <g id="text_16">
      <!-- 4 -->
      <g style="fill: #262626" transform="translate(28.885938 64.008296) scale(0.11 -0.11)">
       <use xlink:href="#ArialMT-34"/>
      </g>
     </g>
    </g>
    <g id="ytick_8">
     <g id="line2d_16">
      <path d="M 44.502969 24.723637 
L 480.285744 24.723637 
" clip-path="url(#pd6b04c49ca)" style="fill: none; stroke: #cccccc; stroke-linecap: round"/>
     </g>
     <g id="text_17">
      <!-- 5 -->
      <g style="fill: #262626" transform="translate(28.885938 28.660434) scale(0.11 -0.11)">
       <defs>
        <path id="ArialMT-35" d="M 266 1200 
L 856 1250 
Q 922 819 1161 601 
Q 1400 384 1738 384 
Q 2144 384 2425 690 
Q 2706 997 2706 1503 
Q 2706 1984 2436 2262 
Q 2166 2541 1728 2541 
Q 1456 2541 1237 2417 
Q 1019 2294 894 2097 
L 366 2166 
L 809 4519 
L 3088 4519 
L 3088 3981 
L 1259 3981 
L 1013 2750 
Q 1425 3038 1878 3038 
Q 2478 3038 2890 2622 
Q 3303 2206 3303 1553 
Q 3303 931 2941 478 
Q 2500 -78 1738 -78 
Q 1113 -78 717 272 
Q 322 622 266 1200 
z
" transform="scale(0.015625)"/>
       </defs>
       <use xlink:href="#ArialMT-35"/>
      </g>
     </g>
    </g>
    <g id="text_18">
     <!-- Ganancia Hake por grupo -->
     <g style="fill: #262626" transform="translate(15.935625 232.330312) rotate(-90) scale(0.12 -0.12)">
      <defs>
       <path id="ArialMT-47" d="M 2638 1797 
L 2638 2334 
L 4578 2338 
L 4578 638 
Q 4131 281 3656 101 
Q 3181 -78 2681 -78 
Q 2006 -78 1454 211 
Q 903 500 622 1047 
Q 341 1594 341 2269 
Q 341 2938 620 3517 
Q 900 4097 1425 4378 
Q 1950 4659 2634 4659 
Q 3131 4659 3532 4498 
Q 3934 4338 4162 4050 
Q 4391 3763 4509 3300 
L 3963 3150 
Q 3859 3500 3706 3700 
Q 3553 3900 3268 4020 
Q 2984 4141 2638 4141 
Q 2222 4141 1919 4014 
Q 1616 3888 1430 3681 
Q 1244 3475 1141 3228 
Q 966 2803 966 2306 
Q 966 1694 1177 1281 
Q 1388 869 1791 669 
Q 2194 469 2647 469 
Q 3041 469 3416 620 
Q 3791 772 3984 944 
L 3984 1797 
L 2638 1797 
z
" transform="scale(0.015625)"/>
       <path id="ArialMT-6e" d="M 422 0 
L 422 3319 
L 928 3319 
L 928 2847 
Q 1294 3394 1984 3394 
Q 2284 3394 2536 3286 
Q 2788 3178 2913 3003 
Q 3038 2828 3088 2588 
Q 3119 2431 3119 2041 
L 3119 0 
L 2556 0 
L 2556 2019 
Q 2556 2363 2490 2533 
Q 2425 2703 2258 2804 
Q 2091 2906 1866 2906 
Q 1506 2906 1245 2678 
Q 984 2450 984 1813 
L 984 0 
L 422 0 
z
" transform="scale(0.015625)"/>
       <path id="ArialMT-48" d="M 513 0 
L 513 4581 
L 1119 4581 
L 1119 2700 
L 3500 2700 
L 3500 4581 
L 4106 4581 
L 4106 0 
L 3500 0 
L 3500 2159 
L 1119 2159 
L 1119 0 
L 513 0 
z
" transform="scale(0.015625)"/>
       <path id="ArialMT-6b" d="M 425 0 
L 425 4581 
L 988 4581 
L 988 1969 
L 2319 3319 
L 3047 3319 
L 1778 2088 
L 3175 0 
L 2481 0 
L 1384 1697 
L 988 1316 
L 988 0 
L 425 0 
z
" transform="scale(0.015625)"/>
       <path id="ArialMT-70" d="M 422 -1272 
L 422 3319 
L 934 3319 
L 934 2888 
Q 1116 3141 1344 3267 
Q 1572 3394 1897 3394 
Q 2322 3394 2647 3175 
Q 2972 2956 3137 2557 
Q 3303 2159 3303 1684 
Q 3303 1175 3120 767 
Q 2938 359 2589 142 
Q 2241 -75 1856 -75 
Q 1575 -75 1351 44 
Q 1128 163 984 344 
L 984 -1272 
L 422 -1272 
z
M 931 1641 
Q 931 1000 1190 694 
Q 1450 388 1819 388 
Q 2194 388 2461 705 
Q 2728 1022 2728 1688 
Q 2728 2322 2467 2637 
Q 2206 2953 1844 2953 
Q 1484 2953 1207 2617 
Q 931 2281 931 1641 
z
" transform="scale(0.015625)"/>
       <path id="ArialMT-72" d="M 416 0 
L 416 3319 
L 922 3319 
L 922 2816 
Q 1116 3169 1280 3281 
Q 1444 3394 1641 3394 
Q 1925 3394 2219 3213 
L 2025 2691 
Q 1819 2813 1613 2813 
Q 1428 2813 1281 2702 
Q 1134 2591 1072 2394 
Q 978 2094 978 1738 
L 978 0 
L 416 0 
z
" transform="scale(0.015625)"/>
       <path id="ArialMT-67" d="M 319 -275 
L 866 -356 
Q 900 -609 1056 -725 
Q 1266 -881 1628 -881 
Q 2019 -881 2231 -725 
Q 2444 -569 2519 -288 
Q 2563 -116 2559 434 
Q 2191 0 1641 0 
Q 956 0 581 494 
Q 206 988 206 1678 
Q 206 2153 378 2554 
Q 550 2956 876 3175 
Q 1203 3394 1644 3394 
Q 2231 3394 2613 2919 
L 2613 3319 
L 3131 3319 
L 3131 450 
Q 3131 -325 2973 -648 
Q 2816 -972 2473 -1159 
Q 2131 -1347 1631 -1347 
Q 1038 -1347 672 -1080 
Q 306 -813 319 -275 
z
M 784 1719 
Q 784 1066 1043 766 
Q 1303 466 1694 466 
Q 2081 466 2343 764 
Q 2606 1063 2606 1700 
Q 2606 2309 2336 2618 
Q 2066 2928 1684 2928 
Q 1309 2928 1046 2623 
Q 784 2319 784 1719 
z
" transform="scale(0.015625)"/>
       <path id="ArialMT-75" d="M 2597 0 
L 2597 488 
Q 2209 -75 1544 -75 
Q 1250 -75 995 37 
Q 741 150 617 320 
Q 494 491 444 738 
Q 409 903 409 1263 
L 409 3319 
L 972 3319 
L 972 1478 
Q 972 1038 1006 884 
Q 1059 663 1231 536 
Q 1403 409 1656 409 
Q 1909 409 2131 539 
Q 2353 669 2445 892 
Q 2538 1116 2538 1541 
L 2538 3319 
L 3100 3319 
L 3100 0 
L 2597 0 
z
" transform="scale(0.015625)"/>
      </defs>
      <use xlink:href="#ArialMT-47"/>
      <use xlink:href="#ArialMT-61" transform="translate(77.783203 0)"/>
      <use xlink:href="#ArialMT-6e" transform="translate(133.398438 0)"/>
      <use xlink:href="#ArialMT-61" transform="translate(189.013672 0)"/>
      <use xlink:href="#ArialMT-6e" transform="translate(244.628906 0)"/>
      <use xlink:href="#ArialMT-63" transform="translate(300.244141 0)"/>
      <use xlink:href="#ArialMT-69" transform="translate(350.244141 0)"/>
      <use xlink:href="#ArialMT-61" transform="translate(372.460938 0)"/>
      <use xlink:href="#ArialMT-20" transform="translate(428.076172 0)"/>
      <use xlink:href="#ArialMT-48" transform="translate(455.859375 0)"/>
      <use xlink:href="#ArialMT-61" transform="translate(528.076172 0)"/>
      <use xlink:href="#ArialMT-6b" transform="translate(583.691406 0)"/>
      <use xlink:href="#ArialMT-65" transform="translate(633.691406 0)"/>
      <use xlink:href="#ArialMT-20" transform="translate(689.306641 0)"/>
      <use xlink:href="#ArialMT-70" transform="translate(717.089844 0)"/>
      <use xlink:href="#ArialMT-6f" transform="translate(772.705078 0)"/>
      <use xlink:href="#ArialMT-72" transform="translate(828.320312 0)"/>
      <use xlink:href="#ArialMT-20" transform="translate(861.621094 0)"/>
      <use xlink:href="#ArialMT-67" transform="translate(889.404297 0)"/>
      <use xlink:href="#ArialMT-72" transform="translate(945.019531 0)"/>
      <use xlink:href="#ArialMT-75" transform="translate(978.320312 0)"/>
      <use xlink:href="#ArialMT-70" transform="translate(1033.935547 0)"/>
      <use xlink:href="#ArialMT-6f" transform="translate(1089.550781 0)"/>
     </g>
    </g>
   </g>
   <g id="FillBetweenPolyCollection_1">
    <defs>
     <path id="me07cadd405" d="M 64.311277 -156.240768 
L 64.311277 -54.902003 
L 68.312955 -55.860185 
L 72.314633 -56.818367 
L 76.316312 -57.776549 
L 80.31799 -58.734731 
L 84.319669 -59.692914 
L 88.321347 -60.651096 
L 92.323025 -61.609278 
L 96.324704 -62.56746 
L 100.326382 -63.525642 
L 104.32806 -64.483824 
L 108.329739 -65.442007 
L 112.331417 -66.400189 
L 116.333096 -67.358371 
L 120.334774 -68.316553 
L 124.336452 -69.274735 
L 128.338131 -70.232917 
L 132.339809 -71.191099 
L 136.341487 -72.149282 
L 140.343166 -73.107464 
L 144.344844 -74.065646 
L 148.346523 -75.023828 
L 152.348201 -75.98201 
L 156.349879 -76.940192 
L 160.351558 -77.898375 
L 164.353236 -78.856557 
L 168.354914 -79.814739 
L 172.356593 -80.772921 
L 176.358271 -81.731103 
L 180.35995 -82.689285 
L 184.361628 -83.647468 
L 188.363306 -84.60565 
L 192.364985 -85.563832 
L 196.366663 -86.522014 
L 200.368341 -87.480196 
L 204.37002 -88.438378 
L 208.371698 -89.39656 
L 212.373377 -90.354743 
L 216.375055 -91.312925 
L 220.376733 -92.271107 
L 224.378412 -93.229289 
L 228.38009 -94.187471 
L 232.381768 -95.145653 
L 236.383447 -96.103836 
L 240.385125 -97.062018 
L 244.386803 -98.0202 
L 248.388482 -98.978382 
L 252.39016 -99.936564 
L 256.391839 -100.894746 
L 260.393517 -101.852928 
L 264.395195 -102.811111 
L 268.396874 -103.769293 
L 272.398552 -104.727475 
L 276.40023 -105.685657 
L 280.401909 -106.643839 
L 284.403587 -107.602021 
L 288.405266 -108.560204 
L 292.406944 -109.518386 
L 296.408622 -110.476568 
L 300.410301 -111.43475 
L 304.411979 -112.392932 
L 308.413657 -113.351114 
L 312.415336 -114.309297 
L 316.417014 -115.267479 
L 320.418693 -116.225661 
L 324.420371 -117.183843 
L 328.422049 -118.142025 
L 332.423728 -119.100207 
L 336.425406 -120.058389 
L 340.427084 -121.016572 
L 344.428763 -121.974754 
L 348.430441 -122.932936 
L 352.43212 -123.891118 
L 356.433798 -124.8493 
L 360.435476 -125.807482 
L 364.437155 -126.765665 
L 368.438833 -127.723847 
L 372.440511 -128.682029 
L 376.44219 -129.640211 
L 380.443868 -130.598393 
L 384.445547 -131.556575 
L 388.447225 -132.514757 
L 392.448903 -133.47294 
L 396.450582 -134.431122 
L 400.45226 -135.389304 
L 404.453938 -136.347486 
L 408.455617 -137.305668 
L 412.457295 -138.26385 
L 416.458974 -139.222033 
L 420.460652 -140.180215 
L 424.46233 -140.509995 
L 428.464009 -140.335208 
L 432.465687 -140.160422 
L 436.467365 -139.985635 
L 440.469044 -139.810849 
L 444.470722 -139.636063 
L 448.472401 -139.461276 
L 452.474079 -139.28649 
L 456.475757 -139.111704 
L 460.477436 -138.936917 
L 460.477436 -312.520185 
L 460.477436 -312.520185 
L 456.475757 -310.865809 
L 452.474079 -309.211432 
L 448.472401 -307.557056 
L 444.470722 -305.90268 
L 440.469044 -304.248304 
L 436.467365 -302.593928 
L 432.465687 -300.939552 
L 428.464009 -299.285176 
L 424.46233 -297.6308 
L 420.460652 -295.976423 
L 416.458974 -294.322047 
L 412.457295 -292.667671 
L 408.455617 -291.013295 
L 404.453938 -289.358919 
L 400.45226 -287.704543 
L 396.450582 -286.050167 
L 392.448903 -284.395791 
L 388.447225 -282.741414 
L 384.445547 -281.087038 
L 380.443868 -279.432662 
L 376.44219 -277.778286 
L 372.440511 -276.12391 
L 368.438833 -274.469534 
L 364.437155 -272.815158 
L 360.435476 -271.160782 
L 356.433798 -269.506405 
L 352.43212 -267.852029 
L 348.430441 -266.197653 
L 344.428763 -264.543277 
L 340.427084 -262.888901 
L 336.425406 -261.234525 
L 332.423728 -259.580149 
L 328.422049 -257.925773 
L 324.420371 -256.271396 
L 320.418693 -254.61702 
L 316.417014 -252.962644 
L 312.415336 -251.308268 
L 308.413657 -249.653892 
L 304.411979 -247.999516 
L 300.410301 -246.34514 
L 296.408622 -244.690764 
L 292.406944 -243.036387 
L 288.405266 -241.382011 
L 284.403587 -239.727635 
L 280.401909 -238.073259 
L 276.40023 -236.418883 
L 272.398552 -234.764507 
L 268.396874 -233.110131 
L 264.395195 -231.455755 
L 260.393517 -229.801378 
L 256.391839 -228.147002 
L 252.39016 -226.492626 
L 248.388482 -224.83825 
L 244.386803 -223.183874 
L 240.385125 -221.529498 
L 236.383447 -219.875122 
L 232.381768 -218.220746 
L 228.38009 -216.566369 
L 224.378412 -214.911993 
L 220.376733 -213.257617 
L 216.375055 -211.603241 
L 212.373377 -209.948865 
L 208.371698 -208.294489 
L 204.37002 -206.640113 
L 200.368341 -204.985737 
L 196.366663 -203.33136 
L 192.364985 -201.676984 
L 188.363306 -200.022608 
L 184.361628 -198.368232 
L 180.35995 -196.713856 
L 176.358271 -195.05948 
L 172.356593 -193.405104 
L 168.354914 -191.750728 
L 164.353236 -190.096351 
L 160.351558 -188.441975 
L 156.349879 -186.787599 
L 152.348201 -185.133223 
L 148.346523 -183.478847 
L 144.344844 -181.824471 
L 140.343166 -180.170095 
L 136.341487 -178.515719 
L 132.339809 -176.861342 
L 128.338131 -175.206966 
L 124.336452 -173.55259 
L 120.334774 -171.898214 
L 116.333096 -170.243838 
L 112.331417 -168.589462 
L 108.329739 -166.935086 
L 104.32806 -165.28071 
L 100.326382 -163.626333 
L 96.324704 -161.971957 
L 92.323025 -160.317581 
L 88.321347 -158.663205 
L 84.319669 -157.008829 
L 80.31799 -155.541623 
L 76.316312 -155.716409 
L 72.314633 -155.891196 
L 68.312955 -156.065982 
L 64.311277 -156.240768 
z
" style="stroke: #ffffff; stroke-opacity: 0.15"/>
    </defs>
    <g clip-path="url(#pd6b04c49ca)">
     <use xlink:href="#me07cadd405" x="0" y="347.336719" style="fill: #4682b4; fill-opacity: 0.15; stroke: #ffffff; stroke-opacity: 0.15"/>
    </g>
   </g>
   <g id="line2d_17">
    <path d="M 64.311277 195.39937 
L 68.312955 195.467508 
L 72.314633 195.535645 
L 76.316312 195.603783 
L 80.31799 195.671921 
L 84.319669 195.740058 
L 88.321347 195.808196 
L 92.323025 195.876333 
L 96.324704 195.944471 
L 100.326382 196.012608 
L 104.32806 196.080746 
L 108.329739 196.148884 
L 112.331417 196.217021 
L 116.333096 196.285159 
L 120.334774 196.353296 
L 124.336452 196.421434 
L 128.338131 196.489571 
L 132.339809 196.557709 
L 136.341487 196.625847 
L 140.343166 196.693984 
L 144.344844 196.762122 
L 148.346523 196.830259 
L 152.348201 196.898397 
L 156.349879 196.966535 
L 160.351558 197.034672 
L 164.353236 197.10281 
L 168.354914 197.170947 
L 172.356593 197.239085 
L 176.358271 197.307222 
L 180.35995 197.37536 
L 184.361628 197.443498 
L 188.363306 197.511635 
L 192.364985 197.579773 
L 196.366663 197.64791 
L 200.368341 197.716048 
L 204.37002 197.784185 
L 208.371698 197.852323 
L 212.373377 197.920461 
L 216.375055 197.988598 
L 220.376733 198.056736 
L 224.378412 198.124873 
L 228.38009 198.193011 
L 232.381768 198.261148 
L 236.383447 198.329286 
L 240.385125 198.397424 
L 244.386803 198.465561 
L 248.388482 198.533699 
L 252.39016 198.601836 
L 256.391839 198.669974 
L 260.393517 198.738111 
L 264.395195 198.806249 
L 268.396874 198.874387 
L 272.398552 198.942524 
L 276.40023 199.010662 
L 280.401909 199.078799 
L 284.403587 199.146937 
L 288.405266 199.215074 
L 292.406944 199.283212 
L 296.408622 199.35135 
L 300.410301 199.419487 
L 304.411979 199.487625 
L 308.413657 199.555762 
L 312.415336 199.6239 
L 316.417014 199.692037 
L 320.418693 199.760175 
L 324.420371 199.828313 
L 328.422049 199.89645 
L 332.423728 199.964588 
L 336.425406 200.032725 
L 340.427084 200.100863 
L 344.428763 200.169 
L 348.430441 200.237138 
L 352.43212 200.305276 
L 356.433798 200.373413 
L 360.435476 200.441551 
L 364.437155 200.509688 
L 368.438833 200.577826 
L 372.440511 200.645963 
L 376.44219 200.714101 
L 380.443868 200.782239 
L 384.445547 200.850376 
L 388.447225 200.918514 
L 392.448903 200.986651 
L 396.450582 201.054789 
L 400.45226 201.122927 
L 404.453938 201.191064 
L 408.455617 201.259202 
L 412.457295 201.327339 
L 416.458974 201.395477 
L 420.460652 201.463614 
L 424.46233 201.531752 
L 428.464009 201.59989 
L 432.465687 201.668027 
L 436.467365 201.736165 
L 440.469044 201.804302 
L 444.470722 201.87244 
L 448.472401 201.940577 
L 452.474079 202.008715 
L 456.475757 202.076853 
L 460.477436 202.14499 
" clip-path="url(#pd6b04c49ca)" style="fill: none; stroke: #4682b4; stroke-width: 2.25; stroke-linecap: round"/>
   </g>
   <g id="patch_3">
    <path d="M 44.502969 305.315625 
L 44.502969 21.935625 
" style="fill: none; stroke: #cccccc; stroke-width: 1.25; stroke-linejoin: miter; stroke-linecap: square"/>
   </g>
   <g id="patch_4">
    <path d="M 480.285744 305.315625 
L 480.285744 21.935625 
" style="fill: none; stroke: #cccccc; stroke-width: 1.25; stroke-linejoin: miter; stroke-linecap: square"/>
   </g>
   <g id="patch_5">
    <path d="M 44.502969 305.315625 
L 480.285744 305.315625 
" style="fill: none; stroke: #cccccc; stroke-width: 1.25; stroke-linejoin: miter; stroke-linecap: square"/>
   </g>
   <g id="patch_6">
    <path d="M 44.502969 21.935625 
L 480.285744 21.935625 
" style="fill: none; stroke: #cccccc; stroke-width: 1.25; stroke-linejoin: miter; stroke-linecap: square"/>
   </g>
   <g id="text_19">
    <!-- 5A -->
    <g style="fill: #262626" transform="translate(86.727464 187.812981) scale(0.1 -0.1)">
     <defs>
      <path id="ArialMT-41" d="M -9 0 
L 1750 4581 
L 2403 4581 
L 4278 0 
L 3588 0 
L 3053 1388 
L 1138 1388 
L 634 0 
L -9 0 
z
M 1313 1881 
L 2866 1881 
L 2388 3150 
Q 2169 3728 2063 4100 
Q 1975 3659 1816 3225 
L 1313 1881 
z
" transform="scale(0.015625)"/>
     </defs>
     <use xlink:href="#ArialMT-35"/>
     <use xlink:href="#ArialMT-41" transform="translate(55.615234 0)"/>
    </g>
   </g>
   <g id="text_20">
    <!-- 5B -->
    <g style="fill: #262626" transform="translate(428.242795 202.729779) scale(0.1 -0.1)">
     <defs>
      <path id="ArialMT-42" d="M 469 0 
L 469 4581 
L 2188 4581 
Q 2713 4581 3030 4442 
Q 3347 4303 3526 4014 
Q 3706 3725 3706 3409 
Q 3706 3116 3547 2856 
Q 3388 2597 3066 2438 
Q 3481 2316 3704 2022 
Q 3928 1728 3928 1328 
Q 3928 1006 3792 729 
Q 3656 453 3456 303 
Q 3256 153 2954 76 
Q 2653 0 2216 0 
L 469 0 
z
M 1075 2656 
L 2066 2656 
Q 2469 2656 2644 2709 
Q 2875 2778 2992 2937 
Q 3109 3097 3109 3338 
Q 3109 3566 3000 3739 
Q 2891 3913 2687 3977 
Q 2484 4041 1991 4041 
L 1075 4041 
L 1075 2656 
z
M 1075 541 
L 2216 541 
Q 2509 541 2628 563 
Q 2838 600 2978 687 
Q 3119 775 3209 942 
Q 3300 1109 3300 1328 
Q 3300 1584 3169 1773 
Q 3038 1963 2805 2039 
Q 2572 2116 2134 2116 
L 1075 2116 
L 1075 541 
z
" transform="scale(0.015625)"/>
     </defs>
     <use xlink:href="#ArialMT-35"/>
     <use xlink:href="#ArialMT-42" transform="translate(55.615234 0)"/>
    </g>
   </g>
   <g id="text_21">
    <!-- 5C -->
    <g style="fill: #262626" transform="translate(466.477436 193.574682) scale(0.1 -0.1)">
     <defs>
      <path id="ArialMT-43" d="M 3763 1606 
L 4369 1453 
Q 4178 706 3683 314 
Q 3188 -78 2472 -78 
Q 1731 -78 1267 223 
Q 803 525 561 1097 
Q 319 1669 319 2325 
Q 319 3041 592 3573 
Q 866 4106 1370 4382 
Q 1875 4659 2481 4659 
Q 3169 4659 3637 4309 
Q 4106 3959 4291 3325 
L 3694 3184 
Q 3534 3684 3231 3912 
Q 2928 4141 2469 4141 
Q 1941 4141 1586 3887 
Q 1231 3634 1087 3207 
Q 944 2781 944 2328 
Q 944 1744 1114 1308 
Q 1284 872 1643 656 
Q 2003 441 2422 441 
Q 2931 441 3284 734 
Q 3638 1028 3763 1606 
z
" transform="scale(0.015625)"/>
     </defs>
     <use xlink:href="#ArialMT-35"/>
     <use xlink:href="#ArialMT-43" transform="translate(55.615234 0)"/>
    </g>
   </g>
   <g id="text_22">
    <!-- 5D -->
    <g style="fill: #262626" transform="translate(70.311277 194.59977) scale(0.1 -0.1)">
     <defs>
      <path id="ArialMT-44" d="M 494 0 
L 494 4581 
L 2072 4581 
Q 2606 4581 2888 4516 
Q 3281 4425 3559 4188 
Q 3922 3881 4101 3404 
Q 4281 2928 4281 2316 
Q 4281 1794 4159 1391 
Q 4038 988 3847 723 
Q 3656 459 3429 307 
Q 3203 156 2883 78 
Q 2563 0 2147 0 
L 494 0 
z
M 1100 541 
L 2078 541 
Q 2531 541 2789 625 
Q 3047 709 3200 863 
Q 3416 1078 3536 1442 
Q 3656 1806 3656 2325 
Q 3656 3044 3420 3430 
Q 3184 3816 2847 3947 
Q 2603 4041 2063 4041 
L 1100 4041 
L 1100 541 
z
" transform="scale(0.015625)"/>
     </defs>
     <use xlink:href="#ArialMT-35"/>
     <use xlink:href="#ArialMT-44" transform="translate(55.615234 0)"/>
    </g>
   </g>
   <g id="text_23">
    <!-- Satisfacción con actividades vs ganancia de aprendizaje — Juan Echegaray -->
    <g style="fill: #262626" transform="translate(59.616856 15.935625) scale(0.12 -0.12)">
     <defs>
      <path id="ArialMT-53" d="M 288 1472 
L 859 1522 
Q 900 1178 1048 958 
Q 1197 738 1509 602 
Q 1822 466 2213 466 
Q 2559 466 2825 569 
Q 3091 672 3220 851 
Q 3350 1031 3350 1244 
Q 3350 1459 3225 1620 
Q 3100 1781 2813 1891 
Q 2628 1963 1997 2114 
Q 1366 2266 1113 2400 
Q 784 2572 623 2826 
Q 463 3081 463 3397 
Q 463 3744 659 4045 
Q 856 4347 1234 4503 
Q 1613 4659 2075 4659 
Q 2584 4659 2973 4495 
Q 3363 4331 3572 4012 
Q 3781 3694 3797 3291 
L 3216 3247 
Q 3169 3681 2898 3903 
Q 2628 4125 2100 4125 
Q 1550 4125 1298 3923 
Q 1047 3722 1047 3438 
Q 1047 3191 1225 3031 
Q 1400 2872 2139 2705 
Q 2878 2538 3153 2413 
Q 3553 2228 3743 1945 
Q 3934 1663 3934 1294 
Q 3934 928 3725 604 
Q 3516 281 3123 101 
Q 2731 -78 2241 -78 
Q 1619 -78 1198 103 
Q 778 284 539 648 
Q 300 1013 288 1472 
z
" transform="scale(0.015625)"/>
      <path id="ArialMT-66" d="M 556 0 
L 556 2881 
L 59 2881 
L 59 3319 
L 556 3319 
L 556 3672 
Q 556 4006 616 4169 
Q 697 4388 901 4523 
Q 1106 4659 1475 4659 
Q 1713 4659 2000 4603 
L 1916 4113 
Q 1741 4144 1584 4144 
Q 1328 4144 1222 4034 
Q 1116 3925 1116 3625 
L 1116 3319 
L 1763 3319 
L 1763 2881 
L 1116 2881 
L 1116 0 
L 556 0 
z
" transform="scale(0.015625)"/>
      <path id="ArialMT-f3" d="M 213 1659 
Q 213 2581 725 3025 
Q 1153 3394 1769 3394 
Q 2453 3394 2887 2945 
Q 3322 2497 3322 1706 
Q 3322 1066 3130 698 
Q 2938 331 2570 128 
Q 2203 -75 1769 -75 
Q 1072 -75 642 372 
Q 213 819 213 1659 
z
M 791 1659 
Q 791 1022 1069 705 
Q 1347 388 1769 388 
Q 2188 388 2466 706 
Q 2744 1025 2744 1678 
Q 2744 2294 2464 2611 
Q 2184 2928 1769 2928 
Q 1347 2928 1069 2612 
Q 791 2297 791 1659 
z
M 1454 3731 
L 1869 4606 
L 2607 4606 
L 1919 3731 
L 1454 3731 
z
" transform="scale(0.015625)"/>
      <path id="ArialMT-76" d="M 1344 0 
L 81 3319 
L 675 3319 
L 1388 1331 
Q 1503 1009 1600 663 
Q 1675 925 1809 1294 
L 2547 3319 
L 3125 3319 
L 1869 0 
L 1344 0 
z
" transform="scale(0.015625)"/>
      <path id="ArialMT-7a" d="M 125 0 
L 125 456 
L 2238 2881 
Q 1878 2863 1603 2863 
L 250 2863 
L 250 3319 
L 2963 3319 
L 2963 2947 
L 1166 841 
L 819 456 
Q 1197 484 1528 484 
L 3063 484 
L 3063 0 
L 125 0 
z
" transform="scale(0.015625)"/>
      <path id="ArialMT-6a" d="M 419 3928 
L 419 4581 
L 981 4581 
L 981 3928 
L 419 3928 
z
M -294 -1288 
L -188 -809 
Q -19 -853 78 -853 
Q 250 -853 334 -739 
Q 419 -625 419 -169 
L 419 3319 
L 981 3319 
L 981 -181 
Q 981 -794 822 -1034 
Q 619 -1347 147 -1347 
Q -81 -1347 -294 -1288 
z
" transform="scale(0.015625)"/>
      <path id="ArialMT-2014" d="M 0 1431 
L 0 1884 
L 6400 1884 
L 6400 1431 
L 0 1431 
z
" transform="scale(0.015625)"/>
      <path id="ArialMT-4a" d="M 184 1300 
L 731 1375 
Q 753 850 928 656 
Q 1103 463 1413 463 
Q 1641 463 1806 567 
Q 1972 672 2034 851 
Q 2097 1031 2097 1425 
L 2097 4581 
L 2703 4581 
L 2703 1459 
Q 2703 884 2564 568 
Q 2425 253 2123 87 
Q 1822 -78 1416 -78 
Q 813 -78 492 269 
Q 172 616 184 1300 
z
" transform="scale(0.015625)"/>
      <path id="ArialMT-45" d="M 506 0 
L 506 4581 
L 3819 4581 
L 3819 4041 
L 1113 4041 
L 1113 2638 
L 3647 2638 
L 3647 2100 
L 1113 2100 
L 1113 541 
L 3925 541 
L 3925 0 
L 506 0 
z
" transform="scale(0.015625)"/>
      <path id="ArialMT-68" d="M 422 0 
L 422 4581 
L 984 4581 
L 984 2938 
Q 1378 3394 1978 3394 
Q 2347 3394 2619 3248 
Q 2891 3103 3008 2847 
Q 3125 2591 3125 2103 
L 3125 0 
L 2563 0 
L 2563 2103 
Q 2563 2525 2380 2717 
Q 2197 2909 1863 2909 
Q 1613 2909 1392 2779 
Q 1172 2650 1078 2428 
Q 984 2206 984 1816 
L 984 0 
L 422 0 
z
" transform="scale(0.015625)"/>
      <path id="ArialMT-79" d="M 397 -1278 
L 334 -750 
Q 519 -800 656 -800 
Q 844 -800 956 -737 
Q 1069 -675 1141 -563 
Q 1194 -478 1313 -144 
Q 1328 -97 1363 -6 
L 103 3319 
L 709 3319 
L 1400 1397 
Q 1534 1031 1641 628 
Q 1738 1016 1872 1384 
L 2581 3319 
L 3144 3319 
L 1881 -56 
Q 1678 -603 1566 -809 
Q 1416 -1088 1222 -1217 
Q 1028 -1347 759 -1347 
Q 597 -1347 397 -1278 
z
" transform="scale(0.015625)"/>
     </defs>
     <use xlink:href="#ArialMT-53"/>
     <use xlink:href="#ArialMT-61" transform="translate(66.699219 0)"/>
     <use xlink:href="#ArialMT-74" transform="translate(122.314453 0)"/>
     <use xlink:href="#ArialMT-69" transform="translate(150.097656 0)"/>
     <use xlink:href="#ArialMT-73" transform="translate(172.314453 0)"/>
     <use xlink:href="#ArialMT-66" transform="translate(222.314453 0)"/>
     <use xlink:href="#ArialMT-61" transform="translate(250.097656 0)"/>
     <use xlink:href="#ArialMT-63" transform="translate(305.712891 0)"/>
     <use xlink:href="#ArialMT-63" transform="translate(355.712891 0)"/>
     <use xlink:href="#ArialMT-69" transform="translate(405.712891 0)"/>
     <use xlink:href="#ArialMT-f3" transform="translate(427.929688 0)"/>
     <use xlink:href="#ArialMT-6e" transform="translate(483.544922 0)"/>
     <use xlink:href="#ArialMT-20" transform="translate(539.160156 0)"/>
     <use xlink:href="#ArialMT-63" transform="translate(566.943359 0)"/>
     <use xlink:href="#ArialMT-6f" transform="translate(616.943359 0)"/>
     <use xlink:href="#ArialMT-6e" transform="translate(672.558594 0)"/>
     <use xlink:href="#ArialMT-20" transform="translate(728.173828 0)"/>
     <use xlink:href="#ArialMT-61" transform="translate(755.957031 0)"/>
     <use xlink:href="#ArialMT-63" transform="translate(811.572266 0)"/>
     <use xlink:href="#ArialMT-74" transform="translate(861.572266 0)"/>
     <use xlink:href="#ArialMT-69" transform="translate(889.355469 0)"/>
     <use xlink:href="#ArialMT-76" transform="translate(911.572266 0)"/>
     <use xlink:href="#ArialMT-69" transform="translate(961.572266 0)"/>
     <use xlink:href="#ArialMT-64" transform="translate(983.789062 0)"/>
     <use xlink:href="#ArialMT-61" transform="translate(1039.404297 0)"/>
     <use xlink:href="#ArialMT-64" transform="translate(1095.019531 0)"/>
     <use xlink:href="#ArialMT-65" transform="translate(1150.634766 0)"/>
     <use xlink:href="#ArialMT-73" transform="translate(1206.25 0)"/>
     <use xlink:href="#ArialMT-20" transform="translate(1256.25 0)"/>
     <use xlink:href="#ArialMT-76" transform="translate(1284.033203 0)"/>
     <use xlink:href="#ArialMT-73" transform="translate(1334.033203 0)"/>
     <use xlink:href="#ArialMT-20" transform="translate(1384.033203 0)"/>
     <use xlink:href="#ArialMT-67" transform="translate(1411.816406 0)"/>
     <use xlink:href="#ArialMT-61" transform="translate(1467.431641 0)"/>
     <use xlink:href="#ArialMT-6e" transform="translate(1523.046875 0)"/>
     <use xlink:href="#ArialMT-61" transform="translate(1578.662109 0)"/>
     <use xlink:href="#ArialMT-6e" transform="translate(1634.277344 0)"/>
     <use xlink:href="#ArialMT-63" transform="translate(1689.892578 0)"/>
     <use xlink:href="#ArialMT-69" transform="translate(1739.892578 0)"/>
     <use xlink:href="#ArialMT-61" transform="translate(1762.109375 0)"/>
     <use xlink:href="#ArialMT-20" transform="translate(1817.724609 0)"/>
     <use xlink:href="#ArialMT-64" transform="translate(1845.507812 0)"/>
     <use xlink:href="#ArialMT-65" transform="translate(1901.123047 0)"/>
     <use xlink:href="#ArialMT-20" transform="translate(1956.738281 0)"/>
     <use xlink:href="#ArialMT-61" transform="translate(1984.521484 0)"/>
     <use xlink:href="#ArialMT-70" transform="translate(2040.136719 0)"/>
     <use xlink:href="#ArialMT-72" transform="translate(2095.751953 0)"/>
     <use xlink:href="#ArialMT-65" transform="translate(2129.052734 0)"/>
     <use xlink:href="#ArialMT-6e" transform="translate(2184.667969 0)"/>
     <use xlink:href="#ArialMT-64" transform="translate(2240.283203 0)"/>
     <use xlink:href="#ArialMT-69" transform="translate(2295.898438 0)"/>
     <use xlink:href="#ArialMT-7a" transform="translate(2318.115234 0)"/>
     <use xlink:href="#ArialMT-61" transform="translate(2368.115234 0)"/>
     <use xlink:href="#ArialMT-6a" transform="translate(2423.730469 0)"/>
     <use xlink:href="#ArialMT-65" transform="translate(2445.947266 0)"/>
     <use xlink:href="#ArialMT-20" transform="translate(2501.5625 0)"/>
     <use xlink:href="#ArialMT-2014" transform="translate(2529.345703 0)"/>
     <use xlink:href="#ArialMT-20" transform="translate(2629.345703 0)"/>
     <use xlink:href="#ArialMT-4a" transform="translate(2657.128906 0)"/>
     <use xlink:href="#ArialMT-75" transform="translate(2707.128906 0)"/>
     <use xlink:href="#ArialMT-61" transform="translate(2762.744141 0)"/>
     <use xlink:href="#ArialMT-6e" transform="translate(2818.359375 0)"/>
     <use xlink:href="#ArialMT-20" transform="translate(2873.974609 0)"/>
     <use xlink:href="#ArialMT-45" transform="translate(2901.757812 0)"/>
     <use xlink:href="#ArialMT-63" transform="translate(2968.457031 0)"/>
     <use xlink:href="#ArialMT-68" transform="translate(3018.457031 0)"/>
     <use xlink:href="#ArialMT-65" transform="translate(3074.072266 0)"/>
     <use xlink:href="#ArialMT-67" transform="translate(3129.6875 0)"/>
     <use xlink:href="#ArialMT-61" transform="translate(3185.302734 0)"/>
     <use xlink:href="#ArialMT-72" transform="translate(3240.917969 0)"/>
     <use xlink:href="#ArialMT-61" transform="translate(3274.21875 0)"/>
     <use xlink:href="#ArialMT-79" transform="translate(3329.833984 0)"/>
    </g>
   </g>
   <g id="PathCollection_1">
    <defs>
     <path id="m4bb28dda71" d="M 0 4.472136 
C 1.186024 4.472136 2.323632 4.000923 3.162278 3.162278 
C 4.000923 2.323632 4.472136 1.186024 4.472136 0 
C 4.472136 -1.186024 4.000923 -2.323632 3.162278 -3.162278 
C 2.323632 -4.000923 1.186024 -4.472136 0 -4.472136 
C -1.186024 -4.472136 -2.323632 -4.000923 -3.162278 -3.162278 
C -4.000923 -2.323632 -4.472136 -1.186024 -4.472136 0 
C -4.472136 1.186024 -4.000923 2.323632 -3.162278 3.162278 
C -2.323632 4.000923 -1.186024 4.472136 0 4.472136 
z
" style="stroke: #4878d0; stroke-opacity: 0.8"/>
    </defs>
    <g clip-path="url(#pd6b04c49ca)">
     <use xlink:href="#m4bb28dda71" x="80.727464" y="191.812981" style="fill: #4878d0; fill-opacity: 0.8; stroke: #4878d0; stroke-opacity: 0.8"/>
     <use xlink:href="#m4bb28dda71" x="422.242795" y="206.729779" style="fill: #4878d0; fill-opacity: 0.8; stroke: #4878d0; stroke-opacity: 0.8"/>
     <use xlink:href="#m4bb28dda71" x="460.477436" y="197.574682" style="fill: #4878d0; fill-opacity: 0.8; stroke: #4878d0; stroke-opacity: 0.8"/>
     <use xlink:href="#m4bb28dda71" x="64.311277" y="198.59977" style="fill: #4878d0; fill-opacity: 0.8; stroke: #4878d0; stroke-opacity: 0.8"/>
    </g>
   </g>
  </g>
 </g>
 <defs>
  <clipPath id="pd6b04c49ca">
   <rect x="44.502969" y="21.935625" width="435.782775" height="283.38"/>
  </clipPath>
 </defs>
</svg>
